<?xml version="1.0" encoding="UTF-8" standalone="no"?>
<svg
   xmlns:dc="http://purl.org/dc/elements/1.1/"
   xmlns:cc="http://creativecommons.org/ns#"
   xmlns:rdf="http://www.w3.org/1999/02/22-rdf-syntax-ns#"
   xmlns:svg="http://www.w3.org/2000/svg"
   xmlns="http://www.w3.org/2000/svg"
   xmlns:sodipodi="http://sodipodi.sourceforge.net/DTD/sodipodi-0.dtd"
   xmlns:inkscape="http://www.inkscape.org/namespaces/inkscape"
   inkscape:version="1.0 (4035a4fb49, 2020-05-01)"
   sodipodi:docname="gmap.svg"
   id="svg14"
   version="1.1"
   viewBox="-116.685 -278.925 481.91751 1534.0875"
   width="571.8562"
   height="733.33331">
  <metadata
     id="metadata20">
    <rdf:RDF>
      <cc:Work
         rdf:about="">
        <dc:format>image/svg+xml</dc:format>
        <dc:type
           rdf:resource="http://purl.org/dc/dcmitype/StillImage" />
        <dc:title></dc:title>
      </cc:Work>
    </rdf:RDF>
  </metadata>
  <defs
     id="defs18" />
  <sodipodi:namedview
     inkscape:current-layer="svg14"
     inkscape:window-maximized="1"
     inkscape:window-y="22"
     inkscape:window-x="-8"
     inkscape:cy="295.74197"
     inkscape:cx="194.30112"
     inkscape:zoom="0.87416667"
     fit-margin-bottom="100"
     fit-margin-right="100"
     fit-margin-left="100"
     fit-margin-top="100"
     showgrid="false"
     id="namedview16"
     inkscape:window-height="1027"
     inkscape:window-width="1920"
     inkscape:pageshadow="2"
     inkscape:pageopacity="0"
     guidetolerance="10"
     gridtolerance="10"
     objecttolerance="10"
     borderopacity="1"
     bordercolor="#666666"
     pagecolor="#ffffff" />
  <g
     transform="translate(-264.67622,-69.731244)"
     id="g12"
     fill="none">
    <path
       id="path2"
       d="m 214.3,826.7 c 34.5,43.1 69.5,97.1 87.9,129.8 22.4,42.5 31.6,71.2 48.3,122.4 9.8,28.2 19,36.8 38.5,36.8 21.3,0 31,-14.4 38.5,-36.8 15.5,-48.3 27.6,-85 46.5,-120.1 37.3,-67.2 84.5,-127 130.4,-184.4 12.6,-16.1 93.1,-110.9 129.3,-186.1 0,0 44.2,-82.2 44.2,-197.1 0,-107.4 -43.7,-182.1 -43.7,-182.1 l -126.4,33.9 -77,202.2 -19,27.6 -4,5.2 -5.2,6.3 -8.6,10.3 -12.6,12.6 -68.4,55.7 -170.6,98.8 z"
       fill="#34a853" />
    <path
       id="path4"
       d="m 37.9,574.5 c 41.9,95.4 121.8,178.7 176.4,252.2 l 289,-342.4 c 0,0 -40.8,53.4 -114.3,53.4 -82.2,0 -148.8,-65.5 -148.8,-148.2 0,-56.9 33.9,-95.9 33.9,-95.9 l -196,52.3 z"
       fill="#fbbc04" />
    <path
       id="path6"
       d="m 506.7,17.8 c 95.9,31 178.1,95.9 227.5,191.9 l -231,275.2 c 0,0 33.9,-39.6 33.9,-95.9 0,-84.5 -71.2,-148.2 -148.2,-148.2 -73,0 -114.9,52.9 -114.9,52.9 V 120.1 Z"
       fill="#4285f4" />
    <path
       id="path8"
       d="M 90.7,139 C 148.1,70.6 248.7,0 387.7,0 454.9,0 506,17.8 506,17.8 L 274,293.6 H 109.7 Z"
       fill="#1a73e8" />
    <path
       id="path10"
       d="M 37.9,574.5 C 37.9,574.5 0,499.2 0,390.7 0,287.9 40.2,198.2 91.3,139.6 l 183.3,154.5 z"
       fill="#ea4335" />
  </g>
</svg>
